<svg width="500" height="150" viewBox="0 0 500 150" fill="none" xmlns="http://www.w3.org/2000/svg">
<rect x="16" y="12" width="120" height="120" rx="25" fill="url(#paint0_linear_193_7)"/>
<g filter="url(#filter0_f_193_7)">
<rect x="16" y="12" width="120" height="120" rx="25" fill="url(#paint1_linear_193_7)"/>
</g>
<path d="M114.465 117H93.8252L71.3852 80.88L63.7052 86.4V117H45.5852V31.32H63.7052V70.56C64.9052 68.88 66.1052 67.2 67.3052 65.52C68.5052 63.84 69.7052 62.16 70.9052 60.48L94.0652 31.32H114.225L84.3452 69.24L114.465 117ZM122.033 145.8V84.12C122.033 76.92 123.233 70.8 125.633 65.76C128.033 60.72 131.473 56.88 135.953 54.24C140.513 51.6 145.913 50.28 152.153 50.28C158.473 50.28 163.953 51.6 168.593 54.24C173.233 56.88 176.833 60.76 179.393 65.88C181.953 71 183.233 77.32 183.233 84.84C183.233 92.12 181.873 98.24 179.153 103.2C176.433 108.16 172.953 111.92 168.713 114.48C164.473 116.96 160.033 118.2 155.393 118.2C152.353 118.2 149.593 117.76 147.113 116.88C144.633 116 142.313 114.92 140.153 113.64H139.073C139.233 115.48 139.433 117.92 139.673 120.96C139.913 124 140.033 126.8 140.033 129.36V145.8H122.033ZM152.873 103.8C155.273 103.8 157.393 103.16 159.233 101.88C161.073 100.52 162.473 98.44 163.433 95.64C164.473 92.84 164.993 89.24 164.993 84.84C164.993 77.56 163.833 72.4 161.513 69.36C159.273 66.24 156.033 64.68 151.793 64.68C147.793 64.68 144.833 66.12 142.913 69C140.993 71.88 140.033 76.64 140.033 83.28V98.76C141.713 100.44 143.673 101.72 145.913 102.6C148.233 103.4 150.553 103.8 152.873 103.8ZM218.532 118.2C213.412 118.2 209.012 116.84 205.332 114.12C201.652 111.32 198.852 107.4 196.932 102.36C195.012 97.24 194.052 91.28 194.052 84.48C194.052 73.28 196.332 64.8 200.892 59.04C205.452 53.2 211.532 50.28 219.132 50.28C222.252 50.28 224.972 50.72 227.292 51.6C229.692 52.4 231.772 53.52 233.532 54.96C235.292 56.4 236.812 58.04 238.092 59.88H238.572L240.132 51.48H255.252V96.24C255.252 98.96 255.732 100.8 256.692 101.76C257.732 102.72 258.892 103.2 260.172 103.2C260.732 103.2 261.372 103.12 262.092 102.96C262.812 102.8 263.332 102.68 263.652 102.6V116.64C263.252 116.88 262.572 117.12 261.612 117.36C260.652 117.6 259.612 117.8 258.492 117.96C257.452 118.12 256.492 118.2 255.612 118.2C251.612 118.2 248.372 117.48 245.892 116.04C243.412 114.6 241.492 112.04 240.132 108.36H238.932C237.732 110.12 236.172 111.76 234.252 113.28C232.332 114.8 230.052 116 227.412 116.88C224.772 117.76 221.812 118.2 218.532 118.2ZM225.132 104.16C228.412 104.16 231.012 103.48 232.932 102.12C234.932 100.76 236.372 98.68 237.252 95.88C238.132 93 238.572 89.4 238.572 85.08V84.36C238.572 77.96 237.572 73.12 235.572 69.84C233.652 66.48 230.092 64.8 224.892 64.8C220.652 64.8 217.492 66.48 215.412 69.84C213.332 73.2 212.292 78.12 212.292 84.6C212.292 91 213.332 95.88 215.412 99.24C217.492 102.52 220.732 104.16 225.132 104.16ZM220.212 44.28V42.72L225.852 23.88H245.892V25.08L232.212 44.28H220.212ZM307.148 118.2C303.068 118.2 299.388 117.56 296.108 116.28C292.908 115 290.348 112.8 288.428 109.68C286.508 106.48 285.548 102.08 285.548 96.48V64.92H269.108V51.48H326.708V64.92H303.428V96.48C303.428 98.16 303.748 99.56 304.388 100.68C305.028 101.8 305.948 102.64 307.148 103.2C308.348 103.68 309.708 103.92 311.228 103.92C313.228 103.92 315.148 103.72 316.988 103.32C318.828 102.92 320.668 102.44 322.508 101.88V115.2C320.748 116 318.508 116.68 315.788 117.24C313.148 117.88 310.268 118.2 307.148 118.2ZM398.275 84.12C398.275 89.56 397.515 94.4 395.995 98.64C394.555 102.88 392.435 106.48 389.635 109.44C386.915 112.32 383.595 114.52 379.675 116.04C375.755 117.48 371.315 118.2 366.355 118.2C361.795 118.2 357.555 117.48 353.635 116.04C349.795 114.52 346.475 112.32 343.675 109.44C340.875 106.48 338.675 102.88 337.075 98.64C335.555 94.4 334.795 89.56 334.795 84.12C334.795 76.84 336.075 70.72 338.635 65.76C341.195 60.72 344.875 56.88 349.675 54.24C354.475 51.6 360.155 50.28 366.715 50.28C372.875 50.28 378.315 51.6 383.035 54.24C387.755 56.88 391.475 60.72 394.195 65.76C396.915 70.72 398.275 76.84 398.275 84.12ZM353.035 84.12C353.035 88.44 353.475 92.08 354.355 95.04C355.315 97.92 356.795 100.12 358.795 101.64C360.795 103.08 363.395 103.8 366.595 103.8C369.795 103.8 372.355 103.08 374.275 101.64C376.275 100.12 377.715 97.92 378.595 95.04C379.555 92.08 380.035 88.44 380.035 84.12C380.035 79.8 379.555 76.2 378.595 73.32C377.715 70.44 376.275 68.28 374.275 66.84C372.275 65.4 369.675 64.68 366.475 64.68C361.755 64.68 358.315 66.32 356.155 69.6C354.075 72.8 353.035 77.64 353.035 84.12ZM438.371 141.24C440.051 138.12 441.371 135.32 442.331 132.84C443.371 130.44 443.891 128.2 443.891 126.12C443.891 124.28 443.571 122.88 442.931 121.92C442.291 121.04 441.211 120.28 439.691 119.64C438.171 119.08 436.051 118.44 433.331 117.72C429.251 116.6 425.691 115.16 422.651 113.4C419.611 111.56 417.091 109.32 415.091 106.68C413.091 104.04 411.571 101 410.531 97.56C409.571 94.04 409.091 90.08 409.091 85.68C409.091 79.52 409.891 74.24 411.491 69.84C413.091 65.36 415.331 61.68 418.211 58.8C421.171 55.92 424.651 53.8 428.651 52.44C432.651 51 437.051 50.28 441.851 50.28C445.451 50.28 448.811 50.64 451.931 51.36C455.131 52.08 458.331 53.2 461.531 54.72L456.371 68.52C453.411 67.32 450.771 66.4 448.451 65.76C446.211 65.04 443.851 64.68 441.371 64.68C438.091 64.68 435.411 65.48 433.331 67.08C431.251 68.68 429.731 70.92 428.771 73.8C427.811 76.68 427.331 80.08 427.331 84C427.331 86.72 427.531 89.12 427.931 91.2C428.411 93.28 429.171 95.12 430.211 96.72C431.331 98.32 432.891 99.68 434.891 100.8C436.891 101.92 439.491 102.84 442.691 103.56C447.571 104.68 451.331 106 453.971 107.52C456.691 108.96 458.571 110.8 459.611 113.04C460.731 115.2 461.291 117.88 461.291 121.08C461.291 124.76 460.691 128.32 459.491 131.76C458.371 135.28 456.971 138.44 455.291 141.24H438.371Z" fill="white"/>
<defs>
<filter id="filter0_f_193_7" x="4" y="0" width="144" height="144" filterUnits="userSpaceOnUse" color-interpolation-filters="sRGB">
<feFlood flood-opacity="0" result="BackgroundImageFix"/>
<feBlend mode="normal" in="SourceGraphic" in2="BackgroundImageFix" result="shape"/>
<feGaussianBlur stdDeviation="6" result="effect1_foregroundBlur_193_7"/>
</filter>
<linearGradient id="paint0_linear_193_7" x1="16" y1="72" x2="136" y2="72" gradientUnits="userSpaceOnUse">
<stop stop-color="#E85DA9"/>
<stop offset="1" stop-color="#AB4D97"/>
</linearGradient>
<linearGradient id="paint1_linear_193_7" x1="16" y1="72" x2="136" y2="72" gradientUnits="userSpaceOnUse">
<stop stop-color="#E85DA9"/>
<stop offset="1" stop-color="#AB4D97"/>
</linearGradient>
</defs>
</svg>